<svg xmlns="http://www.w3.org/2000/svg" width="1200" height="630" viewBox="0 0 1200 630">
  <!-- Background -->
  <rect width="1200" height="630" fill="#FAFAFA"/>
  
  <!-- Measurement frame corners -->
  <path d="M40 40 L40 80 M40 40 L80 40" stroke="#0B0B0B" stroke-width="2" fill="none"/>
  <path d="M1160 40 L1160 80 M1160 40 L1120 40" stroke="#0B0B0B" stroke-width="2" fill="none"/>
  <path d="M40 590 L40 550 M40 590 L80 590" stroke="#0B0B0B" stroke-width="2" fill="none"/>
  <path d="M1160 590 L1160 550 M1160 590 L1120 590" stroke="#0B0B0B" stroke-width="2" fill="none"/>
  
  <!-- Subtle grid lines -->
  <line x1="600" y1="60" x2="600" y2="70" stroke="#0B0B0B" stroke-width="1" opacity="0.3"/>
  <line x1="600" y1="560" x2="600" y2="570" stroke="#0B0B0B" stroke-width="1" opacity="0.3"/>
  <line x1="60" y1="315" x2="70" y2="315" stroke="#0B0B0B" stroke-width="1" opacity="0.3"/>
  <line x1="1130" y1="315" x2="1140" y2="315" stroke="#0B0B0B" stroke-width="1" opacity="0.3"/>
  
  <!-- Top meta line -->
  <text x="600" y="180" font-family="monospace" font-size="14" fill="#0B0B0B" text-anchor="middle" letter-spacing="8" opacity="0.5">SYSTEMS / EXHIBITS / ARTIFACTS</text>
  
  <!-- Main title -->
  <text x="600" y="290" font-family="system-ui, sans-serif" font-size="72" font-weight="500" fill="#0B0B0B" text-anchor="middle" letter-spacing="12">PROJECT ZYGA</text>
  
  <!-- Subtitle -->
  <text x="600" y="360" font-family="system-ui, sans-serif" font-size="28" fill="#0B0B0B" text-anchor="middle" letter-spacing="4" opacity="0.7">Event Horizon Gallery</text>
  
  <!-- Bottom left stamp -->
  <text x="80" y="570" font-family="monospace" font-size="12" fill="#0B0B0B" opacity="0.5">Do(C)</text>
  
  <!-- Bottom center motto -->
  <text x="600" y="570" font-family="monospace" font-size="12" fill="#0B0B0B" text-anchor="middle" opacity="0.5">157 // BEGIN • ADAPT • UNDERSTAND</text>
  
  <!-- Bottom right accent (optional red dot for human signature) -->
  <circle cx="1120" cy="565" r="4" fill="#C41E3A"/>
</svg>